<svg width="255" height="61" viewBox="0 0 255 61" fill="none" xmlns="http://www.w3.org/2000/svg">
<path d="M46.2901 44.939L46.2901 44.9391C46.4787 44.8083 46.6394 44.6414 46.7628 44.448C46.8863 44.2547 46.9701 44.0386 47.0094 43.8126C47.0486 43.5865 47.0425 43.3549 46.9915 43.1312C46.9405 42.9075 46.8454 42.6962 46.712 42.5095L46.7098 42.5064C44.832 39.8372 42.2734 37.7198 39.3001 36.3743L38.575 36.0461L39.1853 35.5353C40.9952 34.0204 42.2942 31.9845 42.9055 29.7048C43.5168 27.4252 43.4107 25.0125 42.6016 22.7953C41.7925 20.5781 40.3197 18.6641 38.3838 17.314C36.4479 15.9638 34.1429 15.2431 31.7827 15.25L31.7804 15.25C30.7301 15.2482 29.6846 15.3933 28.6744 15.6809L28.6654 15.6834L28.6654 15.6833C28.441 15.7427 28.2307 15.8461 28.0467 15.9876C27.8626 16.129 27.7086 16.3057 27.5935 16.5072C27.4784 16.7088 27.4045 16.9312 27.3762 17.1616C27.3479 17.392 27.3657 17.6257 27.4285 17.8491C27.4914 18.0726 27.5981 18.2812 27.7424 18.4631C27.8867 18.6449 28.0657 18.7961 28.269 18.9081C28.4724 19.02 28.6959 19.0904 28.9267 19.1152C29.1575 19.1399 29.3909 19.1184 29.6133 19.0521L29.6191 19.0504L29.6191 19.0504C30.3225 18.8497 31.0507 18.7486 31.7822 18.75M46.2901 44.939L31.7812 19.25M46.2901 44.939L46.2843 44.9432C45.9923 45.1518 45.6423 45.2635 45.2835 45.2625C45.0029 45.2608 44.7267 45.1923 44.4778 45.0628C44.2287 44.9331 44.0141 44.7461 43.8516 44.517M46.2901 44.939L43.4437 44.8062M31.7822 18.75L31.7812 19.25M31.7822 18.75C31.7819 18.75 31.7816 18.75 31.7812 18.75V19.25M31.7822 18.75C33.9036 18.7502 35.938 19.5931 37.4381 21.0931C38.9384 22.5934 39.7812 24.6282 39.7812 26.75C39.7812 28.8717 38.9384 30.9065 37.4381 32.4068C35.9378 33.9071 33.903 34.75 31.7812 34.75C31.3171 34.75 30.872 34.9344 30.5438 35.2625C30.2156 35.5907 30.0312 36.0359 30.0312 36.5C30.0312 36.9641 30.2156 37.4092 30.5438 37.7374C30.872 38.0656 31.3171 38.25 31.7812 38.25H31.7818C34.1486 38.2526 36.4801 38.8232 38.5805 39.914C40.6806 41.0045 42.4882 42.583 43.8516 44.517M31.7812 19.25C33.7704 19.25 35.678 20.0402 37.0846 21.4467C38.4911 22.8532 39.2812 24.7609 39.2812 26.75C39.2812 28.7391 38.4911 30.6468 37.0846 32.0533C35.678 33.4598 33.7704 34.25 31.7812 34.25C31.1845 34.25 30.6122 34.487 30.1903 34.909C29.7683 35.3309 29.5312 35.9032 29.5312 36.5C29.5312 37.0967 29.7683 37.669 30.1903 38.091C30.6122 38.5129 31.1845 38.75 31.7812 38.75C34.068 38.7525 36.3207 39.3038 38.3501 40.3577C40.3795 41.4116 42.1263 42.9371 43.4437 44.8062M43.8516 44.517C43.8516 44.517 43.8516 44.517 43.8516 44.517L43.4437 44.8062M43.8516 44.517C43.8519 44.5174 43.8522 44.5178 43.8524 44.5182L43.4437 44.8062M23.9031 35.5361L23.2958 36.047L24.0189 36.3743C26.9922 37.7198 29.5507 39.8372 31.4286 42.5064L31.4357 42.5166L31.4434 42.5264C31.5892 42.7133 31.6956 42.9278 31.7561 43.1571C31.8165 43.3863 31.8297 43.6255 31.7949 43.86C31.7601 44.0945 31.678 44.3195 31.5537 44.5213C31.4293 44.7232 31.2652 44.8976 31.0713 45.0341C30.8775 45.1706 30.6579 45.2663 30.426 45.3153C30.194 45.3644 29.9545 45.3658 29.722 45.3195C29.4895 45.2732 29.2688 45.1801 29.0734 45.0459C28.8779 44.9117 28.7118 44.7392 28.585 44.5389L28.5786 44.5287L28.5717 44.5189C27.211 42.5809 25.4036 40.9989 23.3025 39.9068C21.2013 38.8147 18.868 38.2446 16.5 38.2446C14.132 38.2446 11.7987 38.8147 9.69754 39.9068C7.59636 40.9989 5.78901 42.5809 4.42829 44.5189L4.42717 44.5205C4.26721 44.7502 4.05394 44.9378 3.80562 45.067C3.55731 45.1962 3.28136 45.2633 3.00144 45.2625L2.99837 45.2625C2.63936 45.2637 2.28907 45.152 1.997 44.9432L1.9946 44.9415C1.61602 44.6743 1.3589 44.2678 1.27961 43.8112C1.20033 43.3547 1.30536 42.8853 1.57168 42.5061C3.44949 39.837 6.00797 37.7197 8.98114 36.3743L9.70422 36.047L9.09687 35.5361C7.29184 34.0176 5.9974 31.9808 5.38905 29.7018C4.7807 27.4229 4.88786 25.0119 5.69601 22.7959C6.50416 20.5798 7.9742 18.6659 9.90683 17.3136C11.8395 15.9612 14.1412 15.2359 16.5 15.2359C18.8588 15.2359 21.1605 15.9612 23.0932 17.3136C25.0258 18.6659 26.4958 20.5798 27.304 22.7959C28.1121 25.0119 28.2193 27.4229 27.6109 29.7018C27.0026 31.9808 25.7082 34.0176 23.9031 35.5361ZM9.84824 22.3054C8.96919 23.621 8.5 25.1677 8.5 26.75C8.5 28.8717 9.34285 30.9065 10.8431 32.4068C12.3434 33.9071 14.3783 34.75 16.5 34.75C18.0822 34.75 19.629 34.2808 20.9446 33.4017C22.2602 32.5227 23.2855 31.2733 23.891 29.8114C24.4965 28.3496 24.655 26.7411 24.3463 25.1893C24.0376 23.6374 23.2757 22.2119 22.1569 21.0931C21.038 19.9743 19.6126 19.2124 18.0607 18.9037C16.5089 18.595 14.9003 18.7534 13.4385 19.3589C11.9767 19.9644 10.7273 20.9898 9.84824 22.3054Z" fill="#F1592A" stroke="#F1592A"/>
<g clip-path="url(#clip0_1002_1262)">
<path d="M73.0881 28.7784C71.6828 28.7784 70.4299 28.5199 69.3295 28.0028C68.2358 27.4858 67.3674 26.7732 66.7244 25.8651C66.0814 24.9569 65.7467 23.9162 65.7202 22.7429H69.8963C69.9427 23.5317 70.2741 24.1714 70.8906 24.6619C71.5071 25.1525 72.2396 25.3977 73.0881 25.3977C73.7642 25.3977 74.3608 25.2486 74.8778 24.9503C75.4015 24.6454 75.8092 24.2244 76.1009 23.6875C76.3991 23.1439 76.5483 22.5208 76.5483 21.8182C76.5483 21.1023 76.3958 20.4725 76.0909 19.929C75.7926 19.3854 75.3783 18.9612 74.848 18.6562C74.3177 18.3513 73.7112 18.1955 73.0284 18.1889C72.4318 18.1889 71.8518 18.3116 71.2884 18.5568C70.7315 18.8021 70.2973 19.1368 69.9858 19.5611L66.1577 18.875L67.1222 8.13636H79.571V11.6562H70.6719L70.1449 16.7571H70.2642C70.6222 16.2533 71.1624 15.8357 71.8849 15.5043C72.6075 15.1728 73.4162 15.0071 74.3111 15.0071C75.5374 15.0071 76.6312 15.2955 77.5923 15.8722C78.5535 16.4489 79.3125 17.241 79.8693 18.2486C80.4261 19.2495 80.7012 20.4029 80.6946 21.7088C80.7012 23.081 80.383 24.3007 79.7401 25.3679C79.1037 26.4285 78.2121 27.2637 77.0653 27.8736C75.9252 28.4768 74.5994 28.7784 73.0881 28.7784ZM91.6818 28.9474C89.9716 28.9408 88.5 28.5199 87.267 27.6847C86.0407 26.8494 85.0961 25.6397 84.4332 24.0554C83.777 22.4711 83.4522 20.5653 83.4588 18.3381C83.4588 16.1174 83.7869 14.2249 84.4432 12.6605C85.1061 11.0961 86.0507 9.90625 87.277 9.09091C88.5099 8.26894 89.9782 7.85795 91.6818 7.85795C93.3854 7.85795 94.8504 8.26894 96.0767 9.09091C97.3097 9.91288 98.2576 11.1061 98.9205 12.6705C99.5833 14.2282 99.9115 16.1174 99.9048 18.3381C99.9048 20.572 99.5734 22.4811 98.9105 24.0653C98.2543 25.6496 97.313 26.8594 96.0866 27.6946C94.8603 28.5298 93.392 28.9474 91.6818 28.9474ZM91.6818 25.3778C92.8485 25.3778 93.7798 24.7912 94.4759 23.6179C95.1719 22.4446 95.5166 20.6847 95.5099 18.3381C95.5099 16.7936 95.3509 15.5076 95.0327 14.4801C94.7211 13.4527 94.277 12.6804 93.7003 12.1634C93.1302 11.6463 92.4574 11.3878 91.6818 11.3878C90.5218 11.3878 89.5938 11.9678 88.8977 13.1278C88.2017 14.2879 87.8504 16.0246 87.8438 18.3381C87.8438 19.9025 87.9995 21.2083 88.3111 22.2557C88.6293 23.2964 89.0767 24.0786 89.6534 24.6023C90.2301 25.1193 90.9062 25.3778 91.6818 25.3778ZM104.67 28.7585C104.014 28.7585 103.45 28.5265 102.98 28.0625C102.516 27.5919 102.284 27.0284 102.284 26.3722C102.284 25.7225 102.516 25.1657 102.98 24.7017C103.45 24.2377 104.014 24.0057 104.67 24.0057C105.306 24.0057 105.863 24.2377 106.341 24.7017C106.818 25.1657 107.056 25.7225 107.056 26.3722C107.056 26.8097 106.944 27.2107 106.718 27.5753C106.5 27.9332 106.211 28.2216 105.853 28.4403C105.495 28.6525 105.101 28.7585 104.67 28.7585ZM117.658 28.9474C115.948 28.9408 114.477 28.5199 113.244 27.6847C112.017 26.8494 111.073 25.6397 110.41 24.0554C109.754 22.4711 109.429 20.5653 109.435 18.3381C109.435 16.1174 109.763 14.2249 110.42 12.6605C111.083 11.0961 112.027 9.90625 113.254 9.09091C114.487 8.26894 115.955 7.85795 117.658 7.85795C119.362 7.85795 120.827 8.26894 122.053 9.09091C123.286 9.91288 124.234 11.1061 124.897 12.6705C125.56 14.2282 125.888 16.1174 125.881 18.3381C125.881 20.572 125.55 22.4811 124.887 24.0653C124.231 25.6496 123.29 26.8594 122.063 27.6946C120.837 28.5298 119.369 28.9474 117.658 28.9474ZM117.658 25.3778C118.825 25.3778 119.756 24.7912 120.452 23.6179C121.148 22.4446 121.493 20.6847 121.487 18.3381C121.487 16.7936 121.327 15.5076 121.009 14.4801C120.698 13.4527 120.254 12.6804 119.677 12.1634C119.107 11.6463 118.434 11.3878 117.658 11.3878C116.498 11.3878 115.57 11.9678 114.874 13.1278C114.178 14.2879 113.827 16.0246 113.82 18.3381C113.82 19.9025 113.976 21.2083 114.288 22.2557C114.606 23.2964 115.053 24.0786 115.63 24.6023C116.207 25.1193 116.883 25.3778 117.658 25.3778ZM136.936 28.9474C135.225 28.9408 133.754 28.5199 132.521 27.6847C131.295 26.8494 130.35 25.6397 129.687 24.0554C129.031 22.4711 128.706 20.5653 128.713 18.3381C128.713 16.1174 129.041 14.2249 129.697 12.6605C130.36 11.0961 131.305 9.90625 132.531 9.09091C133.764 8.26894 135.232 7.85795 136.936 7.85795C138.639 7.85795 140.104 8.26894 141.331 9.09091C142.564 9.91288 143.511 11.1061 144.174 12.6705C144.837 14.2282 145.165 16.1174 145.159 18.3381C145.159 20.572 144.827 22.4811 144.164 24.0653C143.508 25.6496 142.567 26.8594 141.341 27.6946C140.114 28.5298 138.646 28.9474 136.936 28.9474ZM136.936 25.3778C138.102 25.3778 139.034 24.7912 139.73 23.6179C140.426 22.4446 140.77 20.6847 140.764 18.3381C140.764 16.7936 140.605 15.5076 140.287 14.4801C139.975 13.4527 139.531 12.6804 138.954 12.1634C138.384 11.6463 137.711 11.3878 136.936 11.3878C135.776 11.3878 134.848 11.9678 134.152 13.1278C133.456 14.2879 133.104 16.0246 133.098 18.3381C133.098 19.9025 133.253 21.2083 133.565 22.2557C133.883 23.2964 134.331 24.0786 134.907 24.6023C135.484 25.1193 136.16 25.3778 136.936 25.3778ZM156.213 28.9474C154.503 28.9408 153.031 28.5199 151.798 27.6847C150.572 26.8494 149.627 25.6397 148.964 24.0554C148.308 22.4711 147.983 20.5653 147.99 18.3381C147.99 16.1174 148.318 14.2249 148.974 12.6605C149.637 11.0961 150.582 9.90625 151.808 9.09091C153.041 8.26894 154.509 7.85795 156.213 7.85795C157.917 7.85795 159.382 8.26894 160.608 9.09091C161.841 9.91288 162.789 11.1061 163.452 12.6705C164.115 14.2282 164.443 16.1174 164.436 18.3381C164.436 20.572 164.105 22.4811 163.442 24.0653C162.786 25.6496 161.844 26.8594 160.618 27.6946C159.392 28.5298 157.923 28.9474 156.213 28.9474ZM156.213 25.3778C157.38 25.3778 158.311 24.7912 159.007 23.6179C159.703 22.4446 160.048 20.6847 160.041 18.3381C160.041 16.7936 159.882 15.5076 159.564 14.4801C159.252 13.4527 158.808 12.6804 158.232 12.1634C157.661 11.6463 156.989 11.3878 156.213 11.3878C155.053 11.3878 154.125 11.9678 153.429 13.1278C152.733 14.2879 152.382 16.0246 152.375 18.3381C152.375 19.9025 152.531 21.2083 152.842 22.2557C153.161 23.2964 153.608 24.0786 154.185 24.6023C154.761 25.1193 155.438 25.3778 156.213 25.3778ZM173.969 27.108V13.983H176.196V27.108H173.969ZM168.52 21.6591V19.4318H181.645V21.6591H168.52ZM192.426 27.108V13.983H194.653V27.108H192.426ZM186.977 21.6591V19.4318H200.102V21.6591H186.977Z" fill="#4D4D4D"/>
<path d="M65.4091 54.5V42.8636H69.3409C70.25 42.8636 70.9962 43.0189 71.5795 43.3295C72.1629 43.6364 72.5947 44.0587 72.875 44.5966C73.1553 45.1345 73.2955 45.7462 73.2955 46.4318C73.2955 47.1174 73.1553 47.7254 72.875 48.2557C72.5947 48.786 72.1648 49.2027 71.5852 49.5057C71.0057 49.8049 70.2652 49.9545 69.3636 49.9545H66.1818V48.6818H69.3182C69.9394 48.6818 70.4394 48.5909 70.8182 48.4091C71.2008 48.2273 71.4773 47.9697 71.6477 47.6364C71.822 47.2992 71.9091 46.8977 71.9091 46.4318C71.9091 45.9659 71.822 45.5587 71.6477 45.2102C71.4735 44.8617 71.1951 44.5928 70.8125 44.4034C70.4299 44.2102 69.9242 44.1136 69.2955 44.1136H66.8182V54.5H65.4091ZM70.8864 49.2727L73.75 54.5H72.1136L69.2955 49.2727H70.8864ZM79.027 54.6818C78.1861 54.6818 77.4607 54.4962 76.8509 54.125C76.2448 53.75 75.777 53.2273 75.4474 52.5568C75.1217 51.8826 74.9588 51.0985 74.9588 50.2045C74.9588 49.3106 75.1217 48.5227 75.4474 47.8409C75.777 47.1553 76.2353 46.6212 76.8224 46.2386C77.4134 45.8523 78.1027 45.6591 78.8906 45.6591C79.3452 45.6591 79.794 45.7348 80.2372 45.8864C80.6804 46.0379 81.0838 46.2841 81.4474 46.625C81.8111 46.9621 82.1009 47.4091 82.3168 47.9659C82.5327 48.5227 82.6406 49.2083 82.6406 50.0227V50.5909H75.9134V49.4318H81.277C81.277 48.9394 81.1785 48.5 80.9815 48.1136C80.7884 47.7273 80.5118 47.4223 80.152 47.1989C79.7959 46.9754 79.3755 46.8636 78.8906 46.8636C78.3565 46.8636 77.8944 46.9962 77.5043 47.2614C77.1179 47.5227 76.8205 47.8636 76.6122 48.2841C76.4039 48.7045 76.2997 49.1553 76.2997 49.6364V50.4091C76.2997 51.0682 76.4134 51.6269 76.6406 52.0852C76.8717 52.5398 77.1918 52.8864 77.6009 53.125C78.0099 53.3598 78.4853 53.4773 79.027 53.4773C79.3793 53.4773 79.6974 53.428 79.9815 53.3295C80.2694 53.2273 80.5175 53.0758 80.7259 52.875C80.9342 52.6705 81.0952 52.4167 81.2088 52.1136L82.5043 52.4773C82.3679 52.9167 82.1387 53.303 81.8168 53.6364C81.4948 53.9659 81.0971 54.2235 80.6236 54.4091C80.1501 54.5909 79.6179 54.6818 79.027 54.6818ZM87.2486 54.7045C86.6955 54.7045 86.1937 54.6004 85.7429 54.392C85.2921 54.1799 84.9342 53.875 84.669 53.4773C84.4039 53.0758 84.2713 52.5909 84.2713 52.0227C84.2713 51.5227 84.3698 51.1174 84.5668 50.8068C84.7637 50.4924 85.027 50.2462 85.3565 50.0682C85.6861 49.8902 86.0497 49.7576 86.4474 49.6705C86.849 49.5795 87.2524 49.5076 87.6577 49.4545C88.188 49.3864 88.6179 49.3352 88.9474 49.3011C89.2808 49.2633 89.5232 49.2008 89.6747 49.1136C89.83 49.0265 89.9077 48.875 89.9077 48.6591V48.6136C89.9077 48.053 89.7543 47.6174 89.4474 47.3068C89.1444 46.9962 88.6842 46.8409 88.0668 46.8409C87.4266 46.8409 86.9247 46.9811 86.5611 47.2614C86.1974 47.5417 85.9418 47.8409 85.794 48.1591L84.5213 47.7045C84.7486 47.1742 85.0516 46.7614 85.4304 46.4659C85.813 46.1667 86.2296 45.9583 86.6804 45.8409C87.1349 45.7197 87.5819 45.6591 88.0213 45.6591C88.3016 45.6591 88.6236 45.6932 88.9872 45.7614C89.3546 45.8258 89.7088 45.9602 90.0497 46.1648C90.3944 46.3693 90.6804 46.678 90.9077 47.0909C91.1349 47.5038 91.2486 48.0568 91.2486 48.75V54.5H89.9077V53.3182H89.8395C89.7486 53.5076 89.5971 53.7102 89.3849 53.9261C89.1728 54.142 88.8906 54.3258 88.5384 54.4773C88.1861 54.6288 87.7562 54.7045 87.2486 54.7045ZM87.4531 53.5C87.9834 53.5 88.4304 53.3958 88.794 53.1875C89.1615 52.9792 89.438 52.7102 89.6236 52.3807C89.813 52.0511 89.9077 51.7045 89.9077 51.3409V50.1136C89.8509 50.1818 89.7259 50.2443 89.5327 50.3011C89.3433 50.3542 89.1236 50.4015 88.8736 50.4432C88.6274 50.4811 88.3868 50.5152 88.152 50.5455C87.9209 50.572 87.7334 50.5947 87.5895 50.6136C87.241 50.6591 86.9152 50.733 86.6122 50.8352C86.313 50.9337 86.0705 51.0833 85.8849 51.2841C85.7031 51.4811 85.6122 51.75 85.6122 52.0909C85.6122 52.5568 85.7846 52.9091 86.1293 53.1477C86.4777 53.3826 86.919 53.5 87.4531 53.5ZM96.9915 54.6818C96.2642 54.6818 95.6222 54.4981 95.0653 54.1307C94.5085 53.7595 94.0729 53.2367 93.7585 52.5625C93.4441 51.8845 93.2869 51.0833 93.2869 50.1591C93.2869 49.2424 93.4441 48.447 93.7585 47.7727C94.0729 47.0985 94.5104 46.5777 95.071 46.2102C95.6316 45.8428 96.2794 45.6591 97.0142 45.6591C97.5824 45.6591 98.0313 45.7538 98.3608 45.9432C98.6941 46.1288 98.9479 46.3409 99.1222 46.5795C99.3002 46.8144 99.4384 47.0076 99.5369 47.1591H99.6506V42.8636H100.991V54.5H99.696V53.1591H99.5369C99.4384 53.3182 99.2983 53.5189 99.1165 53.7614C98.9347 54 98.6752 54.214 98.3381 54.4034C98.0009 54.589 97.5521 54.6818 96.9915 54.6818ZM97.1733 53.4773C97.7112 53.4773 98.1657 53.3371 98.5369 53.0568C98.9081 52.7727 99.1903 52.3807 99.3835 51.8807C99.5767 51.3769 99.6733 50.7955 99.6733 50.1364C99.6733 49.4848 99.5786 48.9148 99.3892 48.4261C99.1998 47.9337 98.9195 47.5511 98.5483 47.2784C98.1771 47.0019 97.7188 46.8636 97.1733 46.8636C96.6051 46.8636 96.1316 47.0095 95.7528 47.3011C95.3778 47.589 95.0956 47.9811 94.9062 48.4773C94.7206 48.9697 94.6278 49.5227 94.6278 50.1364C94.6278 50.7576 94.7225 51.322 94.9119 51.8295C95.1051 52.3333 95.3892 52.7348 95.7642 53.0341C96.143 53.3295 96.6127 53.4773 97.1733 53.4773ZM104.497 57.7727C104.27 57.7727 104.067 57.7538 103.889 57.7159C103.711 57.6818 103.588 57.6477 103.52 57.6136L103.861 56.4318C104.187 56.5152 104.474 56.5455 104.724 56.5227C104.974 56.5 105.196 56.3883 105.389 56.1875C105.586 55.9905 105.766 55.6705 105.929 55.2273L106.179 54.5455L102.952 45.7727H104.406L106.815 52.7273H106.906L109.315 45.7727H110.77L107.065 55.7727C106.899 56.2235 106.692 56.5966 106.446 56.892C106.2 57.1913 105.914 57.4129 105.588 57.5568C105.266 57.7008 104.902 57.7727 104.497 57.7727ZM117.54 48.8864V50.1364H112.449V48.8864H117.54ZM123.695 45.7727V46.9091H119.172V45.7727H123.695ZM120.49 43.6818H121.831V52C121.831 52.3788 121.886 52.6629 121.996 52.8523C122.109 53.0379 122.253 53.1629 122.428 53.2273C122.606 53.2879 122.793 53.3182 122.99 53.3182C123.138 53.3182 123.259 53.3106 123.354 53.2955C123.448 53.2765 123.524 53.2614 123.581 53.25L123.854 54.4545C123.763 54.4886 123.636 54.5227 123.473 54.5568C123.31 54.5947 123.104 54.6136 122.854 54.6136C122.475 54.6136 122.104 54.5322 121.74 54.3693C121.38 54.2064 121.081 53.9583 120.842 53.625C120.607 53.2917 120.49 52.8712 120.49 52.3636V43.6818ZM129.163 54.6818C128.375 54.6818 127.684 54.4943 127.089 54.1193C126.499 53.7443 126.036 53.2197 125.703 52.5455C125.374 51.8712 125.209 51.0833 125.209 50.1818C125.209 49.2727 125.374 48.4792 125.703 47.8011C126.036 47.1231 126.499 46.5966 127.089 46.2216C127.684 45.8466 128.375 45.6591 129.163 45.6591C129.951 45.6591 130.641 45.8466 131.232 46.2216C131.826 46.5966 132.288 47.1231 132.618 47.8011C132.951 48.4792 133.118 49.2727 133.118 50.1818C133.118 51.0833 132.951 51.8712 132.618 52.5455C132.288 53.2197 131.826 53.7443 131.232 54.1193C130.641 54.4943 129.951 54.6818 129.163 54.6818ZM129.163 53.4773C129.762 53.4773 130.254 53.3239 130.641 53.017C131.027 52.7102 131.313 52.3068 131.499 51.8068C131.684 51.3068 131.777 50.7652 131.777 50.1818C131.777 49.5985 131.684 49.0549 131.499 48.5511C131.313 48.0473 131.027 47.6402 130.641 47.3295C130.254 47.0189 129.762 46.8636 129.163 46.8636C128.565 46.8636 128.072 47.0189 127.686 47.3295C127.3 47.6402 127.014 48.0473 126.828 48.5511C126.643 49.0549 126.55 49.5985 126.55 50.1818C126.55 50.7652 126.643 51.3068 126.828 51.8068C127.014 52.3068 127.3 52.7102 127.686 53.017C128.072 53.3239 128.565 53.4773 129.163 53.4773ZM140.165 48.8864V50.1364H135.074V48.8864H140.165ZM144.501 54.5L141.842 45.7727H143.251L145.138 52.4545H145.229L147.092 45.7727H148.524L150.365 52.4318H150.456L152.342 45.7727H153.751L151.092 54.5H149.774L147.865 47.7955H147.729L145.82 54.5H144.501ZM158.773 54.6818C157.985 54.6818 157.294 54.4943 156.699 54.1193C156.108 53.7443 155.646 53.2197 155.312 52.5455C154.983 51.8712 154.818 51.0833 154.818 50.1818C154.818 49.2727 154.983 48.4792 155.312 47.8011C155.646 47.1231 156.108 46.5966 156.699 46.2216C157.294 45.8466 157.985 45.6591 158.773 45.6591C159.561 45.6591 160.25 45.8466 160.841 46.2216C161.436 46.5966 161.898 47.1231 162.227 47.8011C162.561 48.4792 162.727 49.2727 162.727 50.1818C162.727 51.0833 162.561 51.8712 162.227 52.5455C161.898 53.2197 161.436 53.7443 160.841 54.1193C160.25 54.4943 159.561 54.6818 158.773 54.6818ZM158.773 53.4773C159.371 53.4773 159.864 53.3239 160.25 53.017C160.636 52.7102 160.922 52.3068 161.108 51.8068C161.294 51.3068 161.386 50.7652 161.386 50.1818C161.386 49.5985 161.294 49.0549 161.108 48.5511C160.922 48.0473 160.636 47.6402 160.25 47.3295C159.864 47.0189 159.371 46.8636 158.773 46.8636C158.174 46.8636 157.682 47.0189 157.295 47.3295C156.909 47.6402 156.623 48.0473 156.438 48.5511C156.252 49.0549 156.159 49.5985 156.159 50.1818C156.159 50.7652 156.252 51.3068 156.438 51.8068C156.623 52.3068 156.909 52.7102 157.295 53.017C157.682 53.3239 158.174 53.4773 158.773 53.4773ZM164.774 54.5V45.7727H166.07V47.0909H166.161C166.32 46.6591 166.607 46.3087 167.024 46.0398C167.441 45.7708 167.911 45.6364 168.433 45.6364C168.532 45.6364 168.655 45.6383 168.803 45.642C168.95 45.6458 169.062 45.6515 169.138 45.6591V47.0227C169.092 47.0114 168.988 46.9943 168.825 46.9716C168.666 46.9451 168.498 46.9318 168.32 46.9318C167.895 46.9318 167.517 47.0208 167.183 47.1989C166.854 47.3731 166.592 47.6155 166.399 47.9261C166.21 48.233 166.115 48.5833 166.115 48.9773V54.5H164.774ZM171.977 51.3182L171.955 49.6591H172.227L176.045 45.7727H177.705L173.636 49.8864H173.523L171.977 51.3182ZM170.727 54.5V42.8636H172.068V54.5H170.727ZM176.273 54.5L172.864 50.1818L173.818 49.25L177.977 54.5H176.273ZM187.726 45.7727V46.9091H183.203V45.7727H187.726ZM184.521 43.6818H185.862V52C185.862 52.3788 185.917 52.6629 186.027 52.8523C186.141 53.0379 186.285 53.1629 186.459 53.2273C186.637 53.2879 186.824 53.3182 187.021 53.3182C187.169 53.3182 187.29 53.3106 187.385 53.2955C187.48 53.2765 187.555 53.2614 187.612 53.25L187.885 54.4545C187.794 54.4886 187.667 54.5227 187.504 54.5568C187.341 54.5947 187.135 54.6136 186.885 54.6136C186.506 54.6136 186.135 54.5322 185.771 54.3693C185.411 54.2064 185.112 53.9583 184.874 53.625C184.639 53.2917 184.521 52.8712 184.521 52.3636V43.6818ZM192.311 54.7045C191.758 54.7045 191.256 54.6004 190.805 54.392C190.355 54.1799 189.997 53.875 189.732 53.4773C189.466 53.0758 189.334 52.5909 189.334 52.0227C189.334 51.5227 189.432 51.1174 189.629 50.8068C189.826 50.4924 190.089 50.2462 190.419 50.0682C190.749 49.8902 191.112 49.7576 191.51 49.6705C191.911 49.5795 192.315 49.5076 192.72 49.4545C193.25 49.3864 193.68 49.3352 194.01 49.3011C194.343 49.2633 194.586 49.2008 194.737 49.1136C194.893 49.0265 194.97 48.875 194.97 48.6591V48.6136C194.97 48.053 194.817 47.6174 194.51 47.3068C194.207 46.9962 193.747 46.8409 193.129 46.8409C192.489 46.8409 191.987 46.9811 191.624 47.2614C191.26 47.5417 191.004 47.8409 190.857 48.1591L189.584 47.7045C189.811 47.1742 190.114 46.7614 190.493 46.4659C190.875 46.1667 191.292 45.9583 191.743 45.8409C192.197 45.7197 192.644 45.6591 193.084 45.6591C193.364 45.6591 193.686 45.6932 194.05 45.7614C194.417 45.8258 194.771 45.9602 195.112 46.1648C195.457 46.3693 195.743 46.678 195.97 47.0909C196.197 47.5038 196.311 48.0568 196.311 48.75V54.5H194.97V53.3182H194.902C194.811 53.5076 194.66 53.7102 194.447 53.9261C194.235 54.142 193.953 54.3258 193.601 54.4773C193.249 54.6288 192.819 54.7045 192.311 54.7045ZM192.516 53.5C193.046 53.5 193.493 53.3958 193.857 53.1875C194.224 52.9792 194.5 52.7102 194.686 52.3807C194.875 52.0511 194.97 51.7045 194.97 51.3409V50.1136C194.913 50.1818 194.788 50.2443 194.595 50.3011C194.406 50.3542 194.186 50.4015 193.936 50.4432C193.69 50.4811 193.449 50.5152 193.214 50.5455C192.983 50.572 192.796 50.5947 192.652 50.6136C192.304 50.6591 191.978 50.733 191.675 50.8352C191.375 50.9337 191.133 51.0833 190.947 51.2841C190.766 51.4811 190.675 51.75 190.675 52.0909C190.675 52.5568 190.847 52.9091 191.192 53.1477C191.54 53.3826 191.982 53.5 192.516 53.5ZM200.099 42.8636V54.5H198.759V42.8636H200.099ZM206.214 54.6818C205.374 54.6818 204.648 54.4962 204.038 54.125C203.432 53.75 202.964 53.2273 202.635 52.5568C202.309 51.8826 202.146 51.0985 202.146 50.2045C202.146 49.3106 202.309 48.5227 202.635 47.8409C202.964 47.1553 203.423 46.6212 204.01 46.2386C204.601 45.8523 205.29 45.6591 206.078 45.6591C206.533 45.6591 206.982 45.7348 207.425 45.8864C207.868 46.0379 208.271 46.2841 208.635 46.625C208.999 46.9621 209.288 47.4091 209.504 47.9659C209.72 48.5227 209.828 49.2083 209.828 50.0227V50.5909H203.101V49.4318H208.464C208.464 48.9394 208.366 48.5 208.169 48.1136C207.976 47.7273 207.699 47.4223 207.339 47.1989C206.983 46.9754 206.563 46.8636 206.078 46.8636C205.544 46.8636 205.082 46.9962 204.692 47.2614C204.305 47.5227 204.008 47.8636 203.8 48.2841C203.591 48.7045 203.487 49.1553 203.487 49.6364V50.4091C203.487 51.0682 203.601 51.6269 203.828 52.0852C204.059 52.5398 204.379 52.8864 204.788 53.125C205.197 53.3598 205.673 53.4773 206.214 53.4773C206.567 53.4773 206.885 53.428 207.169 53.3295C207.457 53.2273 207.705 53.0758 207.913 52.875C208.122 52.6705 208.283 52.4167 208.396 52.1136L209.692 52.4773C209.555 52.9167 209.326 53.303 209.004 53.6364C208.682 53.9659 208.285 54.2235 207.811 54.4091C207.338 54.5909 206.805 54.6818 206.214 54.6818ZM213.209 49.25V54.5H211.868V45.7727H213.163V47.1364H213.277C213.482 46.6932 213.792 46.3371 214.209 46.0682C214.625 45.7955 215.163 45.6591 215.822 45.6591C216.413 45.6591 216.93 45.7803 217.374 46.0227C217.817 46.2614 218.161 46.625 218.408 47.1136C218.654 47.5985 218.777 48.2121 218.777 48.9545V54.5H217.436V49.0455C217.436 48.3598 217.258 47.8258 216.902 47.4432C216.546 47.0568 216.057 46.8636 215.436 46.8636C215.008 46.8636 214.625 46.9564 214.288 47.142C213.955 47.3277 213.692 47.5985 213.499 47.9545C213.305 48.3106 213.209 48.7424 213.209 49.25ZM225.023 45.7727V46.9091H220.5V45.7727H225.023ZM221.818 43.6818H223.159V52C223.159 52.3788 223.214 52.6629 223.324 52.8523C223.438 53.0379 223.581 53.1629 223.756 53.2273C223.934 53.2879 224.121 53.3182 224.318 53.3182C224.466 53.3182 224.587 53.3106 224.682 53.2955C224.777 53.2765 224.852 53.2614 224.909 53.25L225.182 54.4545C225.091 54.4886 224.964 54.5227 224.801 54.5568C224.638 54.5947 224.432 54.6136 224.182 54.6136C223.803 54.6136 223.432 54.5322 223.068 54.3693C222.708 54.2064 222.409 53.9583 222.17 53.625C221.936 53.2917 221.818 52.8712 221.818 52.3636V43.6818Z" fill="#717171"/>
</g>
<defs>
<clipPath id="clip0_1002_1262">
<rect width="191" height="60" fill="white" transform="translate(64 0.5)"/>
</clipPath>
</defs>
</svg>
