<svg width="255" height="61" viewBox="0 0 255 61" fill="none" xmlns="http://www.w3.org/2000/svg">
<path fill-rule="evenodd" clip-rule="evenodd" d="M35.8529 17.5081C34.5024 16.1632 32.3135 16.1641 30.964 17.51L20.5264 27.9217C19.6916 28.7543 19.2008 29.8688 19.1511 31.0448L19.0026 34.5625C18.9349 36.1643 20.2196 37.4998 21.8284 37.4998L25.2893 37.5C26.56 37.5001 27.7769 36.9889 28.6641 36.0824L39.0177 25.4713C40.3395 24.1208 40.3256 21.9621 38.9866 20.6287L35.8529 17.5081ZM32.2979 18.8383C32.9113 18.2265 33.9062 18.2261 34.5201 18.8374L37.6537 21.958C38.2624 22.5641 38.2687 23.5453 37.6679 24.1591L35.5885 26.2837L30.2064 20.9241L32.2979 18.8383ZM28.8736 22.2534L21.8603 29.25C21.3594 29.7495 21.0649 30.4182 21.0351 31.1238L20.8865 34.6416C20.8639 35.1755 21.2922 35.6207 21.8284 35.6207L25.2894 35.6208C26.0518 35.6209 26.7819 35.3142 27.3143 34.7703L34.2718 27.629L28.8736 22.2534Z" fill="#F1592A"/>
<path d="M37.2 31.9V39.5C37.2 42.2614 34.9614 44.5 32.2 44.5H17C14.2386 44.5 12 42.2614 12 39.5V24.3C12 21.5386 14.2386 19.3 17 19.3H24.6" stroke="#F1592A" stroke-width="1.5" stroke-linecap="round"/>
<g clip-path="url(#clip0_1002_1268)">
<path d="M74.5099 8.13636V28.5H70.2045V12.223H70.0852L65.4219 15.1463V11.3281L70.4631 8.13636H74.5099ZM86.7873 28.7784C85.382 28.7784 84.1291 28.5199 83.0288 28.0028C81.935 27.4858 81.0666 26.7732 80.4237 25.8651C79.7807 24.9569 79.4459 23.9162 79.4194 22.7429H83.5955C83.6419 23.5317 83.9734 24.1714 84.5898 24.6619C85.2063 25.1525 85.9388 25.3977 86.7873 25.3977C87.4634 25.3977 88.06 25.2486 88.5771 24.9503C89.1007 24.6454 89.5084 24.2244 89.8001 23.6875C90.0984 23.1439 90.2475 22.5208 90.2475 21.8182C90.2475 21.1023 90.0951 20.4725 89.7901 19.929C89.4918 19.3854 89.0775 18.9612 88.5472 18.6562C88.0169 18.3513 87.4104 18.1955 86.7276 18.1889C86.131 18.1889 85.551 18.3116 84.9876 18.5568C84.4308 18.8021 83.9966 19.1368 83.685 19.5611L79.8569 18.875L80.8214 8.13636H93.2702V11.6562H84.3711L83.8441 16.7571H83.9634C84.3214 16.2533 84.8616 15.8357 85.5842 15.5043C86.3067 15.1728 87.1154 15.0071 88.0103 15.0071C89.2366 15.0071 90.3304 15.2955 91.2915 15.8722C92.2527 16.4489 93.0117 17.241 93.5685 18.2486C94.1254 19.2495 94.4005 20.4029 94.3938 21.7088C94.4005 23.081 94.0823 24.3007 93.4393 25.3679C92.8029 26.4285 91.9113 27.2637 90.7646 27.8736C89.6244 28.4768 88.2987 28.7784 86.7873 28.7784ZM99.256 28.7585C98.5998 28.7585 98.0363 28.5265 97.5657 28.0625C97.1017 27.5919 96.8697 27.0284 96.8697 26.3722C96.8697 25.7225 97.1017 25.1657 97.5657 24.7017C98.0363 24.2377 98.5998 24.0057 99.256 24.0057C99.8924 24.0057 100.449 24.2377 100.926 24.7017C101.404 25.1657 101.642 25.7225 101.642 26.3722C101.642 26.8097 101.53 27.2107 101.304 27.5753C101.086 27.9332 100.797 28.2216 100.439 28.4403C100.081 28.6525 99.6869 28.7585 99.256 28.7585ZM112.244 28.9474C110.534 28.9408 109.063 28.5199 107.83 27.6847C106.603 26.8494 105.659 25.6397 104.996 24.0554C104.339 22.4711 104.015 20.5653 104.021 18.3381C104.021 16.1174 104.349 14.2249 105.006 12.6605C105.669 11.0961 106.613 9.90625 107.839 9.09091C109.072 8.26894 110.541 7.85795 112.244 7.85795C113.948 7.85795 115.413 8.26894 116.639 9.09091C117.872 9.91288 118.82 11.1061 119.483 12.6705C120.146 14.2282 120.474 16.1174 120.467 18.3381C120.467 20.572 120.136 22.4811 119.473 24.0653C118.817 25.6496 117.875 26.8594 116.649 27.6946C115.423 28.5298 113.955 28.9474 112.244 28.9474ZM112.244 25.3778C113.411 25.3778 114.342 24.7912 115.038 23.6179C115.734 22.4446 116.079 20.6847 116.072 18.3381C116.072 16.7936 115.913 15.5076 115.595 14.4801C115.284 13.4527 114.839 12.6804 114.263 12.1634C113.693 11.6463 113.02 11.3878 112.244 11.3878C111.084 11.3878 110.156 11.9678 109.46 13.1278C108.764 14.2879 108.413 16.0246 108.406 18.3381C108.406 19.9025 108.562 21.2083 108.874 22.2557C109.192 23.2964 109.639 24.0786 110.216 24.6023C110.793 25.1193 111.469 25.3778 112.244 25.3778ZM131.522 28.9474C129.811 28.9408 128.34 28.5199 127.107 27.6847C125.881 26.8494 124.936 25.6397 124.273 24.0554C123.617 22.4711 123.292 20.5653 123.299 18.3381C123.299 16.1174 123.627 14.2249 124.283 12.6605C124.946 11.0961 125.891 9.90625 127.117 9.09091C128.35 8.26894 129.818 7.85795 131.522 7.85795C133.225 7.85795 134.69 8.26894 135.917 9.09091C137.15 9.91288 138.097 11.1061 138.76 12.6705C139.423 14.2282 139.751 16.1174 139.745 18.3381C139.745 20.572 139.413 22.4811 138.75 24.0653C138.094 25.6496 137.153 26.8594 135.926 27.6946C134.7 28.5298 133.232 28.9474 131.522 28.9474ZM131.522 25.3778C132.688 25.3778 133.62 24.7912 134.316 23.6179C135.012 22.4446 135.356 20.6847 135.35 18.3381C135.35 16.7936 135.191 15.5076 134.873 14.4801C134.561 13.4527 134.117 12.6804 133.54 12.1634C132.97 11.6463 132.297 11.3878 131.522 11.3878C130.362 11.3878 129.434 11.9678 128.738 13.1278C128.042 14.2879 127.69 16.0246 127.684 18.3381C127.684 19.9025 127.839 21.2083 128.151 22.2557C128.469 23.2964 128.917 24.0786 129.493 24.6023C130.07 25.1193 130.746 25.3778 131.522 25.3778ZM150.799 28.9474C149.089 28.9408 147.617 28.5199 146.384 27.6847C145.158 26.8494 144.213 25.6397 143.55 24.0554C142.894 22.4711 142.569 20.5653 142.576 18.3381C142.576 16.1174 142.904 14.2249 143.56 12.6605C144.223 11.0961 145.168 9.90625 146.394 9.09091C147.627 8.26894 149.095 7.85795 150.799 7.85795C152.503 7.85795 153.968 8.26894 155.194 9.09091C156.427 9.91288 157.375 11.1061 158.038 12.6705C158.701 14.2282 159.029 16.1174 159.022 18.3381C159.022 20.572 158.691 22.4811 158.028 24.0653C157.371 25.6496 156.43 26.8594 155.204 27.6946C153.978 28.5298 152.509 28.9474 150.799 28.9474ZM150.799 25.3778C151.966 25.3778 152.897 24.7912 153.593 23.6179C154.289 22.4446 154.634 20.6847 154.627 18.3381C154.627 16.7936 154.468 15.5076 154.15 14.4801C153.838 13.4527 153.394 12.6804 152.817 12.1634C152.247 11.6463 151.575 11.3878 150.799 11.3878C149.639 11.3878 148.711 11.9678 148.015 13.1278C147.319 14.2879 146.968 16.0246 146.961 18.3381C146.961 19.9025 147.117 21.2083 147.428 22.2557C147.746 23.2964 148.194 24.0786 148.771 24.6023C149.347 25.1193 150.023 25.3778 150.799 25.3778ZM168.555 27.108V13.983H170.782V27.108H168.555ZM163.106 21.6591V19.4318H176.231V21.6591H163.106ZM187.012 27.108V13.983H189.239V27.108H187.012ZM181.563 21.6591V19.4318H194.688V21.6591H181.563Z" fill="#4D4D4D"/>
<path d="M67.5227 54.5L64.3409 42.8636H65.7727L68.2045 52.3409H68.3182L70.7955 42.8636H72.3864L74.8636 52.3409H74.9773L77.4091 42.8636H78.8409L75.6591 54.5H74.2045L71.6364 45.2273H71.5455L68.9773 54.5H67.5227ZM83.1477 54.6818C82.3598 54.6818 81.6686 54.4943 81.0739 54.1193C80.483 53.7443 80.0208 53.2197 79.6875 52.5455C79.358 51.8712 79.1932 51.0833 79.1932 50.1818C79.1932 49.2727 79.358 48.4792 79.6875 47.8011C80.0208 47.1231 80.483 46.5966 81.0739 46.2216C81.6686 45.8466 82.3598 45.6591 83.1477 45.6591C83.9356 45.6591 84.625 45.8466 85.2159 46.2216C85.8106 46.5966 86.2727 47.1231 86.6023 47.8011C86.9356 48.4792 87.1023 49.2727 87.1023 50.1818C87.1023 51.0833 86.9356 51.8712 86.6023 52.5455C86.2727 53.2197 85.8106 53.7443 85.2159 54.1193C84.625 54.4943 83.9356 54.6818 83.1477 54.6818ZM83.1477 53.4773C83.7462 53.4773 84.2386 53.3239 84.625 53.017C85.0114 52.7102 85.2973 52.3068 85.483 51.8068C85.6686 51.3068 85.7614 50.7652 85.7614 50.1818C85.7614 49.5985 85.6686 49.0549 85.483 48.5511C85.2973 48.0473 85.0114 47.6402 84.625 47.3295C84.2386 47.0189 83.7462 46.8636 83.1477 46.8636C82.5492 46.8636 82.0568 47.0189 81.6705 47.3295C81.2841 47.6402 80.9981 48.0473 80.8125 48.5511C80.6269 49.0549 80.5341 49.5985 80.5341 50.1818C80.5341 50.7652 80.6269 51.3068 80.8125 51.8068C80.9981 52.3068 81.2841 52.7102 81.6705 53.017C82.0568 53.3239 82.5492 53.4773 83.1477 53.4773ZM89.1491 54.5V45.7727H90.4446V47.0909H90.5355C90.6946 46.6591 90.9825 46.3087 91.3991 46.0398C91.8158 45.7708 92.2855 45.6364 92.8082 45.6364C92.9067 45.6364 93.0298 45.6383 93.1776 45.642C93.3253 45.6458 93.437 45.6515 93.5128 45.6591V47.0227C93.4673 47.0114 93.3632 46.9943 93.2003 46.9716C93.0412 46.9451 92.8726 46.9318 92.6946 46.9318C92.2704 46.9318 91.8916 47.0208 91.5582 47.1989C91.2287 47.3731 90.9673 47.6155 90.7741 47.9261C90.5848 48.233 90.4901 48.5833 90.4901 48.9773V54.5H89.1491ZM96.3523 51.3182L96.3295 49.6591H96.6023L100.42 45.7727H102.08L98.0114 49.8864H97.8977L96.3523 51.3182ZM95.1023 54.5V42.8636H96.4432V54.5H95.1023ZM100.648 54.5L97.2386 50.1818L98.1932 49.25L102.352 54.5H100.648ZM111.601 54.6818C110.874 54.6818 110.232 54.4981 109.675 54.1307C109.118 53.7595 108.682 53.2367 108.368 52.5625C108.054 51.8845 107.896 51.0833 107.896 50.1591C107.896 49.2424 108.054 48.447 108.368 47.7727C108.682 47.0985 109.12 46.5777 109.68 46.2102C110.241 45.8428 110.889 45.6591 111.624 45.6591C112.192 45.6591 112.641 45.7538 112.97 45.9432C113.304 46.1288 113.557 46.3409 113.732 46.5795C113.91 46.8144 114.048 47.0076 114.146 47.1591H114.26V42.8636H115.601V54.5H114.305V53.1591H114.146C114.048 53.3182 113.908 53.5189 113.726 53.7614C113.544 54 113.285 54.214 112.947 54.4034C112.61 54.589 112.161 54.6818 111.601 54.6818ZM111.783 53.4773C112.321 53.4773 112.775 53.3371 113.146 53.0568C113.518 52.7727 113.8 52.3807 113.993 51.8807C114.186 51.3769 114.283 50.7955 114.283 50.1364C114.283 49.4848 114.188 48.9148 113.999 48.4261C113.809 47.9337 113.529 47.5511 113.158 47.2784C112.786 47.0019 112.328 46.8636 111.783 46.8636C111.214 46.8636 110.741 47.0095 110.362 47.3011C109.987 47.589 109.705 47.9811 109.516 48.4773C109.33 48.9697 109.237 49.5227 109.237 50.1364C109.237 50.7576 109.332 51.322 109.521 51.8295C109.714 52.3333 109.999 52.7348 110.374 53.0341C110.752 53.3295 111.222 53.4773 111.783 53.4773ZM121.788 54.6818C121 54.6818 120.309 54.4943 119.714 54.1193C119.124 53.7443 118.661 53.2197 118.328 52.5455C117.999 51.8712 117.834 51.0833 117.834 50.1818C117.834 49.2727 117.999 48.4792 118.328 47.8011C118.661 47.1231 119.124 46.5966 119.714 46.2216C120.309 45.8466 121 45.6591 121.788 45.6591C122.576 45.6591 123.266 45.8466 123.857 46.2216C124.451 46.5966 124.913 47.1231 125.243 47.8011C125.576 48.4792 125.743 49.2727 125.743 50.1818C125.743 51.0833 125.576 51.8712 125.243 52.5455C124.913 53.2197 124.451 53.7443 123.857 54.1193C123.266 54.4943 122.576 54.6818 121.788 54.6818ZM121.788 53.4773C122.387 53.4773 122.879 53.3239 123.266 53.017C123.652 52.7102 123.938 52.3068 124.124 51.8068C124.309 51.3068 124.402 50.7652 124.402 50.1818C124.402 49.5985 124.309 49.0549 124.124 48.5511C123.938 48.0473 123.652 47.6402 123.266 47.3295C122.879 47.0189 122.387 46.8636 121.788 46.8636C121.19 46.8636 120.697 47.0189 120.311 47.3295C119.925 47.6402 119.639 48.0473 119.453 48.5511C119.268 49.0549 119.175 49.5985 119.175 50.1818C119.175 50.7652 119.268 51.3068 119.453 51.8068C119.639 52.3068 119.925 52.7102 120.311 53.017C120.697 53.3239 121.19 53.4773 121.788 53.4773ZM129.131 49.25V54.5H127.79V45.7727H129.085V47.1364H129.199C129.403 46.6932 129.714 46.3371 130.131 46.0682C130.547 45.7955 131.085 45.6591 131.744 45.6591C132.335 45.6591 132.852 45.7803 133.295 46.0227C133.739 46.2614 134.083 46.625 134.33 47.1136C134.576 47.5985 134.699 48.2121 134.699 48.9545V54.5H133.358V49.0455C133.358 48.3598 133.18 47.8258 132.824 47.4432C132.468 47.0568 131.979 46.8636 131.358 46.8636C130.93 46.8636 130.547 46.9564 130.21 47.142C129.877 47.3277 129.614 47.5985 129.42 47.9545C129.227 48.3106 129.131 48.7424 129.131 49.25ZM140.808 54.6818C139.967 54.6818 139.242 54.4962 138.632 54.125C138.026 53.75 137.558 53.2273 137.229 52.5568C136.903 51.8826 136.74 51.0985 136.74 50.2045C136.74 49.3106 136.903 48.5227 137.229 47.8409C137.558 47.1553 138.017 46.6212 138.604 46.2386C139.195 45.8523 139.884 45.6591 140.672 45.6591C141.126 45.6591 141.575 45.7348 142.018 45.8864C142.462 46.0379 142.865 46.2841 143.229 46.625C143.592 46.9621 143.882 47.4091 144.098 47.9659C144.314 48.5227 144.422 49.2083 144.422 50.0227V50.5909H137.695V49.4318H143.058C143.058 48.9394 142.96 48.5 142.763 48.1136C142.57 47.7273 142.293 47.4223 141.933 47.1989C141.577 46.9754 141.157 46.8636 140.672 46.8636C140.138 46.8636 139.676 46.9962 139.286 47.2614C138.899 47.5227 138.602 47.8636 138.393 48.2841C138.185 48.7045 138.081 49.1553 138.081 49.6364V50.4091C138.081 51.0682 138.195 51.6269 138.422 52.0852C138.653 52.5398 138.973 52.8864 139.382 53.125C139.791 53.3598 140.267 53.4773 140.808 53.4773C141.161 53.4773 141.479 53.428 141.763 53.3295C142.051 53.2273 142.299 53.0758 142.507 52.875C142.715 52.6705 142.876 52.4167 142.99 52.1136L144.286 52.4773C144.149 52.9167 143.92 53.303 143.598 53.6364C143.276 53.9659 142.878 54.2235 142.405 54.4091C141.931 54.5909 141.399 54.6818 140.808 54.6818Z" fill="#717171"/>
</g>
<defs>
<clipPath id="clip0_1002_1268">
<rect width="191" height="60" fill="white" transform="translate(64 0.5)"/>
</clipPath>
</defs>
</svg>
