<svg width="256" height="61" viewBox="0 0 256 61" fill="none" xmlns="http://www.w3.org/2000/svg">
<g clip-path="url(#clip0_1002_1277)">
<path d="M40.5 48.5V44.5C40.5 42.3783 39.6571 40.3434 38.1569 38.8431C36.6566 37.3429 34.6217 36.5 32.5 36.5H30.5C29.9696 36.5 29.4609 36.2893 29.0858 35.9142C28.7107 35.5391 28.5 35.0304 28.5 34.5V24.5C28.5 23.4391 28.0786 22.4217 27.3284 21.6716C26.5783 20.9214 25.5609 20.5 24.5 20.5C23.4391 20.5 22.4217 20.9214 21.6716 21.6716C20.9214 22.4217 20.5 23.4391 20.5 24.5V42.5L15.7 36.1C15.3274 35.6032 14.8443 35.2 14.2889 34.9223C13.7334 34.6446 13.121 34.5 12.5 34.5H11.632C9.902 34.5 8.5 35.902 8.5 37.632C8.5 38.2 8.654 38.758 8.946 39.244L14.5 48.5M24.5 14.5V12.5V14.5ZM36.5 26.5H38.5H36.5ZM10.5 26.5H12.5H10.5ZM15.186 17.186L13.772 15.772L15.186 17.186ZM33.814 17.186L35.228 15.772L33.814 17.186Z" fill="#F1592A"/>
<path d="M40.5 48.5V44.5C40.5 42.3783 39.6571 40.3434 38.1569 38.8431C36.6566 37.3429 34.6217 36.5 32.5 36.5H30.5C29.9696 36.5 29.4609 36.2893 29.0858 35.9142C28.7107 35.5391 28.5 35.0304 28.5 34.5V24.5C28.5 23.4391 28.0786 22.4217 27.3284 21.6716C26.5783 20.9214 25.5609 20.5 24.5 20.5V20.5C23.4391 20.5 22.4217 20.9214 21.6716 21.6716C20.9214 22.4217 20.5 23.4391 20.5 24.5V42.5L15.7 36.1C15.3274 35.6032 14.8443 35.2 14.2889 34.9223C13.7334 34.6446 13.121 34.5 12.5 34.5H11.632C9.902 34.5 8.5 35.902 8.5 37.632C8.5 38.2 8.654 38.758 8.946 39.244L14.5 48.5M24.5 14.5V12.5M36.5 26.5H38.5M10.5 26.5H12.5M15.186 17.186L13.772 15.772M33.814 17.186L35.228 15.772" stroke="#F1592A" stroke-width="2" stroke-linecap="round" stroke-linejoin="round"/>
<g clip-path="url(#clip1_1002_1277)">
<path d="M73.5185 7.85795C74.5658 7.85795 75.5734 8.03362 76.5412 8.38494C77.5156 8.73627 78.384 9.2964 79.1463 10.0653C79.9152 10.8343 80.5218 11.8551 80.9659 13.1278C81.4167 14.3939 81.6454 15.9484 81.652 17.7912C81.652 19.5213 81.4564 21.0658 81.0653 22.4247C80.6809 23.777 80.1274 24.9271 79.4048 25.875C78.6823 26.8229 77.8106 27.5455 76.7898 28.0426C75.7689 28.5331 74.6288 28.7784 73.3693 28.7784C72.0104 28.7784 70.8106 28.5166 69.7699 27.9929C68.7292 27.4626 67.8906 26.7434 67.2543 25.8352C66.6245 24.9205 66.2434 23.893 66.1108 22.7528H70.3565C70.5223 23.4953 70.8703 24.072 71.4006 24.483C71.9309 24.8873 72.5871 25.0895 73.3693 25.0895C74.6951 25.0895 75.7027 24.5128 76.392 23.3594C77.0814 22.1993 77.4295 20.6117 77.4361 18.5966H77.2969C76.992 19.1932 76.581 19.7069 76.0639 20.1378C75.5469 20.562 74.9536 20.8902 74.2841 21.1222C73.6212 21.3542 72.9152 21.4702 72.1662 21.4702C70.9664 21.4702 69.8958 21.1884 68.9545 20.625C68.0133 20.0616 67.2708 19.286 66.7273 18.2983C66.1837 17.3106 65.9119 16.1837 65.9119 14.9176C65.9053 13.5521 66.2202 12.3357 66.8565 11.2685C67.4929 10.2012 68.3812 9.366 69.5213 8.76278C70.6681 8.15293 72.0005 7.85132 73.5185 7.85795ZM73.5483 11.2386C72.8788 11.2386 72.2822 11.3977 71.7585 11.7159C71.2415 12.0341 70.8305 12.4616 70.5256 12.9986C70.2273 13.5355 70.0814 14.1354 70.0881 14.7983C70.0881 15.4678 70.2339 16.071 70.5256 16.608C70.8239 17.1383 71.2282 17.5625 71.7386 17.8807C72.2557 18.1922 72.8456 18.348 73.5085 18.348C74.0057 18.348 74.4664 18.2552 74.8906 18.0696C75.3149 17.884 75.6828 17.6288 75.9943 17.304C76.3125 16.9725 76.5611 16.5914 76.7401 16.1605C76.919 15.7296 77.0085 15.2723 77.0085 14.7884C77.0019 14.1454 76.8494 13.5554 76.5511 13.0185C76.2528 12.4815 75.8419 12.0507 75.3182 11.7259C74.7945 11.401 74.2045 11.2386 73.5483 11.2386ZM84.8935 28.5L93.3352 11.7955V11.6562H83.5014V8.13636H97.7898V11.706L89.3381 28.5H84.8935ZM111.887 24.6818V23.608C111.887 22.7926 112.059 22.0436 112.404 21.3608C112.755 20.6714 113.262 20.1212 113.925 19.7102C114.595 19.2926 115.41 19.0838 116.371 19.0838C117.346 19.0838 118.164 19.2893 118.827 19.7003C119.497 20.1113 120 20.6615 120.338 21.3509C120.683 22.0336 120.855 22.786 120.855 23.608V24.6818C120.855 25.4972 120.683 26.2495 120.338 26.9389C119.994 27.6217 119.487 28.1686 118.817 28.5795C118.148 28.9972 117.332 29.206 116.371 29.206C115.397 29.206 114.578 28.9972 113.915 28.5795C113.252 28.1686 112.748 27.6217 112.404 26.9389C112.059 26.2495 111.887 25.4972 111.887 24.6818ZM114.78 23.608V24.6818C114.78 25.1525 114.893 25.5966 115.118 26.0142C115.35 26.4318 115.768 26.6406 116.371 26.6406C116.974 26.6406 117.385 26.4351 117.604 26.0241C117.829 25.6132 117.942 25.1657 117.942 24.6818V23.608C117.942 23.1241 117.836 22.6733 117.624 22.2557C117.412 21.8381 116.994 21.6293 116.371 21.6293C115.775 21.6293 115.36 21.8381 115.128 22.2557C114.896 22.6733 114.78 23.1241 114.78 23.608ZM101.436 13.0284V11.9545C101.436 11.1326 101.612 10.3802 101.963 9.69744C102.315 9.00805 102.822 8.45786 103.485 8.04688C104.154 7.63589 104.963 7.4304 105.911 7.4304C106.892 7.4304 107.714 7.63589 108.377 8.04688C109.04 8.45786 109.543 9.00805 109.888 9.69744C110.233 10.3802 110.405 11.1326 110.405 11.9545V13.0284C110.405 13.8504 110.23 14.6027 109.878 15.2855C109.533 15.9683 109.026 16.5152 108.357 16.9261C107.694 17.3305 106.879 17.5327 105.911 17.5327C104.943 17.5327 104.124 17.3272 103.455 16.9162C102.792 16.4986 102.288 15.9517 101.944 15.2756C101.605 14.5928 101.436 13.8437 101.436 13.0284ZM104.35 11.9545V13.0284C104.35 13.5123 104.462 13.9598 104.688 14.3707C104.92 14.7817 105.328 14.9872 105.911 14.9872C106.521 14.9872 106.935 14.7817 107.154 14.3707C107.379 13.9598 107.492 13.5123 107.492 13.0284V11.9545C107.492 11.4706 107.386 11.0199 107.174 10.6023C106.962 10.1847 106.541 9.97585 105.911 9.97585C105.321 9.97585 104.913 10.188 104.688 10.6122C104.462 11.0365 104.35 11.4839 104.35 11.9545ZM102.749 28.5L116.749 8.13636H119.354L105.354 28.5H102.749Z" fill="#4D4D4D"/>
<path d="M72.2727 45.7727C72.2045 45.197 71.928 44.75 71.4432 44.4318C70.9583 44.1136 70.3636 43.9545 69.6591 43.9545C69.1439 43.9545 68.6932 44.0379 68.3068 44.2045C67.9242 44.3712 67.625 44.6004 67.4091 44.892C67.197 45.1837 67.0909 45.5152 67.0909 45.8864C67.0909 46.197 67.1648 46.464 67.3125 46.6875C67.464 46.9072 67.6572 47.0909 67.892 47.2386C68.1269 47.3826 68.3731 47.5019 68.6307 47.5966C68.8883 47.6875 69.125 47.7614 69.3409 47.8182L70.5227 48.1364C70.8258 48.2159 71.1629 48.3258 71.5341 48.4659C71.9091 48.6061 72.267 48.7973 72.608 49.0398C72.9527 49.2784 73.2367 49.5852 73.4602 49.9602C73.6837 50.3352 73.7955 50.7955 73.7955 51.3409C73.7955 51.9697 73.6307 52.5379 73.3011 53.0455C72.9754 53.553 72.4981 53.9564 71.8693 54.2557C71.2443 54.5549 70.4848 54.7045 69.5909 54.7045C68.7576 54.7045 68.036 54.5701 67.4261 54.3011C66.8201 54.0322 66.3428 53.6572 65.9943 53.1761C65.6496 52.6951 65.4545 52.1364 65.4091 51.5H66.8636C66.9015 51.9394 67.0492 52.303 67.3068 52.5909C67.5682 52.875 67.8977 53.0871 68.2955 53.2273C68.697 53.3636 69.1288 53.4318 69.5909 53.4318C70.1288 53.4318 70.6117 53.3447 71.0398 53.1705C71.4678 52.9924 71.8068 52.7462 72.0568 52.4318C72.3068 52.1136 72.4318 51.7424 72.4318 51.3182C72.4318 50.9318 72.3239 50.6174 72.108 50.375C71.892 50.1326 71.608 49.9356 71.2557 49.7841C70.9034 49.6326 70.5227 49.5 70.1136 49.3864L68.6818 48.9773C67.7727 48.7159 67.053 48.3428 66.5227 47.858C65.9924 47.3731 65.7273 46.7386 65.7273 45.9545C65.7273 45.303 65.9034 44.7348 66.2557 44.25C66.6117 43.7614 67.089 43.3826 67.6875 43.1136C68.2898 42.8409 68.9621 42.7045 69.7045 42.7045C70.4545 42.7045 71.1212 42.839 71.7045 43.108C72.2879 43.3731 72.75 43.7367 73.0909 44.1989C73.4356 44.661 73.6174 45.1856 73.6364 45.7727H72.2727ZM78.4986 54.7045C77.9455 54.7045 77.4437 54.6004 76.9929 54.392C76.5421 54.1799 76.1842 53.875 75.919 53.4773C75.6539 53.0758 75.5213 52.5909 75.5213 52.0227C75.5213 51.5227 75.6198 51.1174 75.8168 50.8068C76.0137 50.4924 76.277 50.2462 76.6065 50.0682C76.9361 49.8902 77.2997 49.7576 77.6974 49.6705C78.099 49.5795 78.5024 49.5076 78.9077 49.4545C79.438 49.3864 79.8679 49.3352 80.1974 49.3011C80.5308 49.2633 80.7732 49.2008 80.9247 49.1136C81.08 49.0265 81.1577 48.875 81.1577 48.6591V48.6136C81.1577 48.053 81.0043 47.6174 80.6974 47.3068C80.3944 46.9962 79.9342 46.8409 79.3168 46.8409C78.6766 46.8409 78.1747 46.9811 77.8111 47.2614C77.4474 47.5417 77.1918 47.8409 77.044 48.1591L75.7713 47.7045C75.9986 47.1742 76.3016 46.7614 76.6804 46.4659C77.063 46.1667 77.4796 45.9583 77.9304 45.8409C78.3849 45.7197 78.8319 45.6591 79.2713 45.6591C79.5516 45.6591 79.8736 45.6932 80.2372 45.7614C80.6046 45.8258 80.9588 45.9602 81.2997 46.1648C81.6444 46.3693 81.9304 46.678 82.1577 47.0909C82.3849 47.5038 82.4986 48.0568 82.4986 48.75V54.5H81.1577V53.3182H81.0895C80.9986 53.5076 80.8471 53.7102 80.6349 53.9261C80.4228 54.142 80.1406 54.3258 79.7884 54.4773C79.4361 54.6288 79.0062 54.7045 78.4986 54.7045ZM78.7031 53.5C79.2334 53.5 79.6804 53.3958 80.044 53.1875C80.4115 52.9792 80.688 52.7102 80.8736 52.3807C81.063 52.0511 81.1577 51.7045 81.1577 51.3409V50.1136C81.1009 50.1818 80.9759 50.2443 80.7827 50.3011C80.5933 50.3542 80.3736 50.4015 80.1236 50.4432C79.8774 50.4811 79.6368 50.5152 79.402 50.5455C79.1709 50.572 78.9834 50.5947 78.8395 50.6136C78.491 50.6591 78.1652 50.733 77.8622 50.8352C77.563 50.9337 77.3205 51.0833 77.1349 51.2841C76.9531 51.4811 76.8622 51.75 76.8622 52.0909C76.8622 52.5568 77.0346 52.9091 77.3793 53.1477C77.7277 53.3826 78.169 53.5 78.7031 53.5ZM88.7415 45.7727V46.9091H84.2188V45.7727H88.7415ZM85.5369 43.6818H86.8778V52C86.8778 52.3788 86.9328 52.6629 87.0426 52.8523C87.1563 53.0379 87.3002 53.1629 87.4744 53.2273C87.6525 53.2879 87.84 53.3182 88.0369 53.3182C88.1847 53.3182 88.3059 53.3106 88.4006 53.2955C88.4953 53.2765 88.571 53.2614 88.6278 53.25L88.9006 54.4545C88.8097 54.4886 88.6828 54.5227 88.5199 54.5568C88.357 54.5947 88.1506 54.6136 87.9006 54.6136C87.5218 54.6136 87.1506 54.5322 86.7869 54.3693C86.4271 54.2064 86.1278 53.9583 85.8892 53.625C85.6544 53.2917 85.5369 52.8712 85.5369 52.3636V43.6818ZM90.7585 54.5V45.7727H92.0994V54.5H90.7585ZM91.4403 44.3182C91.179 44.3182 90.9536 44.2292 90.7642 44.0511C90.5786 43.8731 90.4858 43.6591 90.4858 43.4091C90.4858 43.1591 90.5786 42.9451 90.7642 42.767C90.9536 42.589 91.179 42.5 91.4403 42.5C91.7017 42.5 91.9252 42.589 92.1108 42.767C92.3002 42.9451 92.3949 43.1591 92.3949 43.4091C92.3949 43.6591 92.3002 43.8731 92.1108 44.0511C91.9252 44.2292 91.7017 44.3182 91.4403 44.3182ZM100.737 47.7273L99.5327 48.0682C99.4569 47.8674 99.3452 47.6723 99.1974 47.483C99.0535 47.2898 98.8565 47.1307 98.6065 47.0057C98.3565 46.8807 98.0365 46.8182 97.6463 46.8182C97.1122 46.8182 96.6671 46.9413 96.3111 47.1875C95.9588 47.4299 95.7827 47.7386 95.7827 48.1136C95.7827 48.447 95.9039 48.7102 96.1463 48.9034C96.3887 49.0966 96.7675 49.2576 97.2827 49.3864L98.5781 49.7045C99.3584 49.8939 99.9399 50.1837 100.322 50.5739C100.705 50.9602 100.896 51.4583 100.896 52.0682C100.896 52.5682 100.752 53.0152 100.464 53.4091C100.18 53.803 99.7827 54.1136 99.2713 54.3409C98.7599 54.5682 98.1652 54.6818 97.4872 54.6818C96.5971 54.6818 95.8603 54.4886 95.277 54.1023C94.6937 53.7159 94.3243 53.1515 94.169 52.4091L95.4418 52.0909C95.563 52.5606 95.7921 52.9129 96.1293 53.1477C96.4702 53.3826 96.9152 53.5 97.4645 53.5C98.0895 53.5 98.5857 53.3674 98.9531 53.1023C99.3243 52.8333 99.5099 52.5114 99.5099 52.1364C99.5099 51.8333 99.4039 51.5795 99.1918 51.375C98.9796 51.1667 98.6539 51.0114 98.2145 50.9091L96.7599 50.5682C95.9607 50.3788 95.3736 50.0852 94.9986 49.6875C94.6274 49.286 94.4418 48.7841 94.4418 48.1818C94.4418 47.6894 94.58 47.2538 94.8565 46.875C95.1368 46.4962 95.5175 46.1989 95.9986 45.983C96.4834 45.767 97.0327 45.6591 97.6463 45.6591C98.5099 45.6591 99.188 45.8485 99.6804 46.2273C100.177 46.6061 100.529 47.1061 100.737 47.7273ZM106.801 45.7727V46.9091H102.097V45.7727H106.801ZM103.506 54.5V44.5682C103.506 44.0682 103.623 43.6515 103.858 43.3182C104.093 42.9848 104.398 42.7348 104.773 42.5682C105.148 42.4015 105.544 42.3182 105.96 42.3182C106.29 42.3182 106.559 42.3447 106.767 42.3977C106.975 42.4508 107.131 42.5 107.233 42.5455L106.847 43.7045C106.778 43.6818 106.684 43.6534 106.562 43.6193C106.445 43.5852 106.29 43.5682 106.097 43.5682C105.653 43.5682 105.333 43.6799 105.136 43.9034C104.943 44.1269 104.847 44.4545 104.847 44.8864V54.5H103.506ZM110.999 54.7045C110.446 54.7045 109.944 54.6004 109.493 54.392C109.042 54.1799 108.684 53.875 108.419 53.4773C108.154 53.0758 108.021 52.5909 108.021 52.0227C108.021 51.5227 108.12 51.1174 108.317 50.8068C108.514 50.4924 108.777 50.2462 109.107 50.0682C109.436 49.8902 109.8 49.7576 110.197 49.6705C110.599 49.5795 111.002 49.5076 111.408 49.4545C111.938 49.3864 112.368 49.3352 112.697 49.3011C113.031 49.2633 113.273 49.2008 113.425 49.1136C113.58 49.0265 113.658 48.875 113.658 48.6591V48.6136C113.658 48.053 113.504 47.6174 113.197 47.3068C112.894 46.9962 112.434 46.8409 111.817 46.8409C111.177 46.8409 110.675 46.9811 110.311 47.2614C109.947 47.5417 109.692 47.8409 109.544 48.1591L108.271 47.7045C108.499 47.1742 108.802 46.7614 109.18 46.4659C109.563 46.1667 109.98 45.9583 110.43 45.8409C110.885 45.7197 111.332 45.6591 111.771 45.6591C112.052 45.6591 112.374 45.6932 112.737 45.7614C113.105 45.8258 113.459 45.9602 113.8 46.1648C114.144 46.3693 114.43 46.678 114.658 47.0909C114.885 47.5038 114.999 48.0568 114.999 48.75V54.5H113.658V53.3182H113.589C113.499 53.5076 113.347 53.7102 113.135 53.9261C112.923 54.142 112.641 54.3258 112.288 54.4773C111.936 54.6288 111.506 54.7045 110.999 54.7045ZM111.203 53.5C111.733 53.5 112.18 53.3958 112.544 53.1875C112.911 52.9792 113.188 52.7102 113.374 52.3807C113.563 52.0511 113.658 51.7045 113.658 51.3409V50.1136C113.601 50.1818 113.476 50.2443 113.283 50.3011C113.093 50.3542 112.874 50.4015 112.624 50.4432C112.377 50.4811 112.137 50.5152 111.902 50.5455C111.671 50.572 111.483 50.5947 111.339 50.6136C110.991 50.6591 110.665 50.733 110.362 50.8352C110.063 50.9337 109.821 51.0833 109.635 51.2841C109.453 51.4811 109.362 51.75 109.362 52.0909C109.362 52.5568 109.535 52.9091 109.879 53.1477C110.228 53.3826 110.669 53.5 111.203 53.5ZM120.991 54.6818C120.173 54.6818 119.469 54.4886 118.878 54.1023C118.287 53.7159 117.832 53.1837 117.514 52.5057C117.196 51.8277 117.037 51.053 117.037 50.1818C117.037 49.2955 117.2 48.5133 117.526 47.8352C117.855 47.1534 118.313 46.6212 118.901 46.2386C119.491 45.8523 120.181 45.6591 120.969 45.6591C121.582 45.6591 122.135 45.7727 122.628 46C123.12 46.2273 123.524 46.5455 123.838 46.9545C124.152 47.3636 124.348 47.8409 124.423 48.3864H123.082C122.98 47.9886 122.753 47.6364 122.401 47.3295C122.052 47.0189 121.582 46.8636 120.991 46.8636C120.469 46.8636 120.01 47 119.616 47.2727C119.226 47.5417 118.921 47.9223 118.702 48.4148C118.486 48.9034 118.378 49.4773 118.378 50.1364C118.378 50.8106 118.484 51.3977 118.696 51.8977C118.912 52.3977 119.215 52.786 119.605 53.0625C119.999 53.339 120.461 53.4773 120.991 53.4773C121.34 53.4773 121.656 53.4167 121.94 53.2955C122.224 53.1742 122.465 53 122.662 52.7727C122.859 52.5455 122.999 52.2727 123.082 51.9545H124.423C124.348 52.4697 124.16 52.9337 123.861 53.3466C123.565 53.7557 123.173 54.0814 122.685 54.3239C122.2 54.5625 121.635 54.6818 120.991 54.6818ZM130.179 45.7727V46.9091H125.656V45.7727H130.179ZM126.974 43.6818H128.315V52C128.315 52.3788 128.37 52.6629 128.48 52.8523C128.594 53.0379 128.738 53.1629 128.912 53.2273C129.09 53.2879 129.277 53.3182 129.474 53.3182C129.622 53.3182 129.743 53.3106 129.838 53.2955C129.933 53.2765 130.009 53.2614 130.065 53.25L130.338 54.4545C130.247 54.4886 130.12 54.5227 129.957 54.5568C129.795 54.5947 129.588 54.6136 129.338 54.6136C128.959 54.6136 128.588 54.5322 128.224 54.3693C127.865 54.2064 127.565 53.9583 127.327 53.625C127.092 53.2917 126.974 52.8712 126.974 52.3636V43.6818ZM132.196 54.5V45.7727H133.537V54.5H132.196ZM132.878 44.3182C132.616 44.3182 132.391 44.2292 132.202 44.0511C132.016 43.8731 131.923 43.6591 131.923 43.4091C131.923 43.1591 132.016 42.9451 132.202 42.767C132.391 42.589 132.616 42.5 132.878 42.5C133.139 42.5 133.363 42.589 133.548 42.767C133.738 42.9451 133.832 43.1591 133.832 43.4091C133.832 43.6591 133.738 43.8731 133.548 44.0511C133.363 44.2292 133.139 44.3182 132.878 44.3182ZM139.538 54.6818C138.75 54.6818 138.059 54.4943 137.464 54.1193C136.874 53.7443 136.411 53.2197 136.078 52.5455C135.749 51.8712 135.584 51.0833 135.584 50.1818C135.584 49.2727 135.749 48.4792 136.078 47.8011C136.411 47.1231 136.874 46.5966 137.464 46.2216C138.059 45.8466 138.75 45.6591 139.538 45.6591C140.326 45.6591 141.016 45.8466 141.607 46.2216C142.201 46.5966 142.663 47.1231 142.993 47.8011C143.326 48.4792 143.493 49.2727 143.493 50.1818C143.493 51.0833 143.326 51.8712 142.993 52.5455C142.663 53.2197 142.201 53.7443 141.607 54.1193C141.016 54.4943 140.326 54.6818 139.538 54.6818ZM139.538 53.4773C140.137 53.4773 140.629 53.3239 141.016 53.017C141.402 52.7102 141.688 52.3068 141.874 51.8068C142.059 51.3068 142.152 50.7652 142.152 50.1818C142.152 49.5985 142.059 49.0549 141.874 48.5511C141.688 48.0473 141.402 47.6402 141.016 47.3295C140.629 47.0189 140.137 46.8636 139.538 46.8636C138.94 46.8636 138.447 47.0189 138.061 47.3295C137.675 47.6402 137.389 48.0473 137.203 48.5511C137.018 49.0549 136.925 49.5985 136.925 50.1818C136.925 50.7652 137.018 51.3068 137.203 51.8068C137.389 52.3068 137.675 52.7102 138.061 53.017C138.447 53.3239 138.94 53.4773 139.538 53.4773ZM146.881 49.25V54.5H145.54V45.7727H146.835V47.1364H146.949C147.153 46.6932 147.464 46.3371 147.881 46.0682C148.297 45.7955 148.835 45.6591 149.494 45.6591C150.085 45.6591 150.602 45.7803 151.045 46.0227C151.489 46.2614 151.833 46.625 152.08 47.1136C152.326 47.5985 152.449 48.2121 152.449 48.9545V54.5H151.108V49.0455C151.108 48.3598 150.93 47.8258 150.574 47.4432C150.218 47.0568 149.729 46.8636 149.108 46.8636C148.68 46.8636 148.297 46.9564 147.96 47.142C147.627 47.3277 147.364 47.5985 147.17 47.9545C146.977 48.3106 146.881 48.7424 146.881 49.25ZM159.399 54.5V45.7727H160.695V47.0909H160.786C160.945 46.6591 161.232 46.3087 161.649 46.0398C162.066 45.7708 162.536 45.6364 163.058 45.6364C163.157 45.6364 163.28 45.6383 163.428 45.642C163.575 45.6458 163.687 45.6515 163.763 45.6591V47.0227C163.717 47.0114 163.613 46.9943 163.45 46.9716C163.291 46.9451 163.123 46.9318 162.945 46.9318C162.52 46.9318 162.142 47.0208 161.808 47.1989C161.479 47.3731 161.217 47.6155 161.024 47.9261C160.835 48.233 160.74 48.5833 160.74 48.9773V54.5H159.399ZM167.92 54.7045C167.367 54.7045 166.866 54.6004 166.415 54.392C165.964 54.1799 165.606 53.875 165.341 53.4773C165.076 53.0758 164.943 52.5909 164.943 52.0227C164.943 51.5227 165.042 51.1174 165.239 50.8068C165.436 50.4924 165.699 50.2462 166.028 50.0682C166.358 49.8902 166.722 49.7576 167.119 49.6705C167.521 49.5795 167.924 49.5076 168.33 49.4545C168.86 49.3864 169.29 49.3352 169.619 49.3011C169.953 49.2633 170.195 49.2008 170.347 49.1136C170.502 49.0265 170.58 48.875 170.58 48.6591V48.6136C170.58 48.053 170.426 47.6174 170.119 47.3068C169.816 46.9962 169.356 46.8409 168.739 46.8409C168.098 46.8409 167.597 46.9811 167.233 47.2614C166.869 47.5417 166.614 47.8409 166.466 48.1591L165.193 47.7045C165.42 47.1742 165.723 46.7614 166.102 46.4659C166.485 46.1667 166.902 45.9583 167.352 45.8409C167.807 45.7197 168.254 45.6591 168.693 45.6591C168.973 45.6591 169.295 45.6932 169.659 45.7614C170.027 45.8258 170.381 45.9602 170.722 46.1648C171.066 46.3693 171.352 46.678 171.58 47.0909C171.807 47.5038 171.92 48.0568 171.92 48.75V54.5H170.58V53.3182H170.511C170.42 53.5076 170.269 53.7102 170.057 53.9261C169.845 54.142 169.563 54.3258 169.21 54.4773C168.858 54.6288 168.428 54.7045 167.92 54.7045ZM168.125 53.5C168.655 53.5 169.102 53.3958 169.466 53.1875C169.833 52.9792 170.11 52.7102 170.295 52.3807C170.485 52.0511 170.58 51.7045 170.58 51.3409V50.1136C170.523 50.1818 170.398 50.2443 170.205 50.3011C170.015 50.3542 169.795 50.4015 169.545 50.4432C169.299 50.4811 169.059 50.5152 168.824 50.5455C168.593 50.572 168.405 50.5947 168.261 50.6136C167.913 50.6591 167.587 50.733 167.284 50.8352C166.985 50.9337 166.742 51.0833 166.557 51.2841C166.375 51.4811 166.284 51.75 166.284 52.0909C166.284 52.5568 166.456 52.9091 166.801 53.1477C167.15 53.3826 167.591 53.5 168.125 53.5ZM178.163 45.7727V46.9091H173.641V45.7727H178.163ZM174.959 43.6818H176.3V52C176.3 52.3788 176.355 52.6629 176.464 52.8523C176.578 53.0379 176.722 53.1629 176.896 53.2273C177.074 53.2879 177.262 53.3182 177.459 53.3182C177.607 53.3182 177.728 53.3106 177.822 53.2955C177.917 53.2765 177.993 53.2614 178.05 53.25L178.322 54.4545C178.232 54.4886 178.105 54.5227 177.942 54.5568C177.779 54.5947 177.572 54.6136 177.322 54.6136C176.944 54.6136 176.572 54.5322 176.209 54.3693C175.849 54.2064 175.55 53.9583 175.311 53.625C175.076 53.2917 174.959 52.8712 174.959 52.3636V43.6818ZM183.746 54.6818C182.905 54.6818 182.179 54.4962 181.57 54.125C180.964 53.75 180.496 53.2273 180.166 52.5568C179.84 51.8826 179.678 51.0985 179.678 50.2045C179.678 49.3106 179.84 48.5227 180.166 47.8409C180.496 47.1553 180.954 46.6212 181.541 46.2386C182.132 45.8523 182.821 45.6591 183.609 45.6591C184.064 45.6591 184.513 45.7348 184.956 45.8864C185.399 46.0379 185.803 46.2841 186.166 46.625C186.53 46.9621 186.82 47.4091 187.036 47.9659C187.251 48.5227 187.359 49.2083 187.359 50.0227V50.5909H180.632V49.4318H185.996C185.996 48.9394 185.897 48.5 185.7 48.1136C185.507 47.7273 185.231 47.4223 184.871 47.1989C184.515 46.9754 184.094 46.8636 183.609 46.8636C183.075 46.8636 182.613 46.9962 182.223 47.2614C181.837 47.5227 181.539 47.8636 181.331 48.2841C181.123 48.7045 181.018 49.1553 181.018 49.6364V50.4091C181.018 51.0682 181.132 51.6269 181.359 52.0852C181.59 52.5398 181.911 52.8864 182.32 53.125C182.729 53.3598 183.204 53.4773 183.746 53.4773C184.098 53.4773 184.416 53.428 184.7 53.3295C184.988 53.2273 185.236 53.0758 185.445 52.875C185.653 52.6705 185.814 52.4167 185.928 52.1136L187.223 52.4773C187.087 52.9167 186.857 53.303 186.536 53.6364C186.214 53.9659 185.816 54.2235 185.342 54.4091C184.869 54.5909 184.337 54.6818 183.746 54.6818Z" fill="#717171"/>
</g>
</g>
<defs>
<clipPath id="clip0_1002_1277">
<rect width="255" height="60" fill="white" transform="translate(0.5 0.5)"/>
</clipPath>
<clipPath id="clip1_1002_1277">
<rect width="191" height="60" fill="white" transform="translate(64.5 0.5)"/>
</clipPath>
</defs>
</svg>
