<svg width="241" height="64" viewBox="0 0 241 64" fill="none" xmlns="http://www.w3.org/2000/svg">
<g clip-path="url(#clip0_1121_536)">
<path fill-rule="evenodd" clip-rule="evenodd" d="M215.75 13.6101L216.92 13.8401L217.86 14.4701L218.48 15.4301L218.71 16.6401L218.5 17.9001L217.9 18.8701L216.97 19.5001L215.76 19.7201L214.55 19.5001L213.62 18.8701L213.02 17.9001L212.81 16.6401L213.04 15.4301L213.66 14.4701L214.6 13.8401L215.77 13.6101H215.75ZM194.9 13.6101L196.07 13.8401L197.01 14.4701L197.63 15.4301L197.86 16.6401L197.65 17.9001L197.05 18.8701L196.12 19.5001L194.91 19.7201L193.7 19.5001L192.77 18.8701L192.17 17.9001L191.96 16.6401L192.19 15.4301L192.81 14.4701L193.75 13.8401L194.92 13.6101H194.9ZM203.19 14.0401H207.42L207.78 14.4201V46.8701L207.42 47.2501H203.19L202.83 46.8701V14.4201L203.19 14.0401ZM80.39 15.7401H89.59L93.66 16.1201L95.14 16.6701L96.76 17.2801L98.94 19.2501L100.22 22.0501L100.64 25.7101L100.22 29.4001L98.94 32.2301L96.76 34.2201L93.65 35.3901L89.58 35.7701H85.48V46.8701L85.12 47.2501H80.38L80.02 46.8701V16.1201L80.38 15.7401H80.39ZM85.49 20.6801V30.8301H89.59L92.07 30.5201L93.8 29.5901L94.81 28.0101L95.14 25.7601L94.81 23.5101L93.8 21.9301L92.07 21.0001L89.59 20.6901H85.49V20.6801ZM232.19 23.1001L235.9 23.6801L238.61 25.3801L240.27 28.1601L240.84 31.9701V46.8701L240.48 47.2501H236.25L235.89 46.8701V32.3001L235.66 30.2201L234.97 28.7401L233.82 27.8501L232.21 27.5601L230.57 27.8501L229.4 28.7401L228.7 30.2201L228.47 32.3001V46.8701L228.11 47.2501H223.88L223.52 46.8701V31.9701L224.08 28.1601L225.75 25.3801L228.47 23.6801L232.21 23.1001H232.19ZM111.62 23.1001L115.51 23.6901L118.35 25.4601L120.09 28.4001L120.68 32.4901V38.8001L120.1 42.6701L119.68 43.3501L118.38 45.4901L115.58 47.2201L111.75 47.8101L108.1 47.3301L105.45 45.9001L103.83 43.5501L103.28 40.3201L103.82 37.2501L105.4 34.9901L107.97 33.5901L111.48 33.1101H115.71V32.8701L115.44 30.4601L114.61 28.8101L113.19 27.8601L111.15 27.5601L110.11 27.6601L109.1 27.9501L108.11 28.4301L107.15 29.0901L106.56 29.5201L106.1 29.4701L105.69 28.8501L104.46 26.8601L104.05 26.2401L106.25 24.3701L109.72 23.2501L111.61 23.1101L111.62 23.1001ZM133.93 23.1001L137.64 23.6801L140.35 25.3801L142.01 28.1601L142.58 31.9701V46.8701L142.22 47.2501H137.99L137.63 46.8701V32.3001L137.4 30.2201L136.71 28.7401L135.56 27.8501L133.95 27.5601L132.31 27.8501L131.14 28.7401L130.44 30.2201L130.21 32.3001V46.8701L129.85 47.2501H125.62L125.26 46.8701V31.9701L125.82 28.1601L127.49 25.3801L130.21 23.6801L133.95 23.1001H133.93ZM156.02 23.1001L159.8 23.6901L159.89 23.7501L162.57 25.4201L163.86 27.5601L164.27 28.2401L164.85 32.1101V46.8001L164.24 50.3801L163.88 50.9401L162.49 53.0901L159.68 54.8001L155.92 55.3901L151.82 54.7801L147.96 52.0201L148.32 51.4001L149.5 49.5001L149.86 48.8401L150.36 48.7401L150.95 49.2601L152.04 49.9801L153.19 50.5001L154.39 50.8201L155.64 50.9301L157.49 50.6601L158.81 49.8301L159.6 48.4501L159.87 46.5201V45.0501H159.78L158.87 45.8601L157.79 46.4401L156.53 46.7901L155.09 46.9001L151.67 46.3101L149.17 44.5801L147.64 41.7601L147.12 37.8901V32.1001L147.71 28.2301L149.43 25.4001L152.22 23.6701L156.01 23.0801L156.02 23.1001ZM178.28 23.1001L182.06 23.6901L182.15 23.7501L184.83 25.4201L186.12 27.5601L186.53 28.2401L187.11 32.1101V46.8001L186.5 50.3801L186.14 50.9401L184.75 53.0901L181.94 54.8001L178.18 55.3901L174.08 54.7801L170.22 52.0201L170.58 51.4001L171.76 49.5001L172.12 48.8401L172.62 48.7401L173.21 49.2601L174.3 49.9801L175.45 50.5001L176.65 50.8201L177.9 50.9301L179.75 50.6601L181.07 49.8301L181.86 48.4501L182.13 46.5201V45.0501H182.04L181.13 45.8601L180.05 46.4401L178.79 46.7901L177.35 46.9001L173.93 46.3101L171.43 44.5801L169.9 41.7601L169.38 37.8901V32.1001L169.97 28.2301L171.69 25.4001L174.48 23.6701L178.27 23.0801L178.28 23.1001ZM213.61 23.6701H217.84L218.2 24.0501V46.8701L217.84 47.2501H213.61L213.24 46.8701V24.0501L213.61 23.6701ZM192.76 23.6701H196.99L197.35 24.0501V46.8701L196.99 47.2501H192.76L192.4 46.8701V24.0501L192.76 23.6701ZM156.02 27.5601L154.31 27.8701L153.09 28.8001L152.35 30.3601L152.1 32.5401V37.5201L152.35 39.6701L153.09 41.2101L154.31 42.1401L156.02 42.4501L157.72 42.1401L158.93 41.2101L159.65 39.6701L159.89 37.5201V32.5401L159.65 30.3601L158.93 28.8001L157.72 27.8701L156.02 27.5601ZM178.28 27.5601L176.57 27.8701L175.35 28.8001L174.61 30.3601L174.36 32.5401V37.5201L174.61 39.6701L175.35 41.2101L176.57 42.1401L178.28 42.4501L179.98 42.1401L181.19 41.2101L181.91 39.6701L182.15 37.5201V32.5401L181.91 30.3601L181.19 28.8001L179.98 27.8701L178.28 27.5601ZM112.17 36.9501L110.5 37.1601L109.27 37.7801L108.51 38.7901L108.25 40.1701L108.47 41.5701L109.13 42.5601L110.23 43.1501L111.76 43.3501L113.49 43.0401L114.73 42.1101L115.47 40.5501L115.72 38.3701V36.9501H112.17Z" fill="white"/>
<path fill-rule="evenodd" clip-rule="evenodd" d="M32.06 0L36.8 0.35L41.32 1.36L45.58 2.98L49.52 5.16L53.1 7.85L56.6 11.44L58.96 14.56L61.14 18.49L62.76 22.73L63.77 27.23L64.12 31.95L63.77 36.67L62.76 41.17L61.14 45.41L58.96 49.34L56.6 52.46L56.26 52.9L53.1 56.05L49.52 58.74L45.58 60.92L41.32 62.54L36.8 63.55L34.92 63.69H11.47V63.65L20.87 49.21H23.07L22.55 50.16L27.08 51.87L32.05 52.47L36.77 51.93L41.1 50.39L44.92 47.97L48.11 44.79L50.54 40.98L52.09 36.66L52.63 31.96L52.09 27.26L50.54 22.94L48.11 19.13L44.92 15.95L41.1 13.53L36.77 11.99L32.05 11.45L27.33 11.99L23 13.53L19.18 15.95L15.99 19.13L13.56 22.94L12.01 27.26L11.47 31.96V63.64L11.44 63.68H0V31.95L0.35 27.23L1.36 22.73L2.98 18.49L5.17 14.56L7.87 11L11.03 7.85L14.61 5.16L18.55 2.98L22.81 1.36L27.33 0.35L32.07 0L32.06 0ZM32.41 21.65L36.22 22.81L39.26 25.39L41.06 29.13L41.24 32.71L40.15 36.03L37.97 38.76L35.06 40.49L34.89 40.59L33.09 41.06L31.29 41.19L29.53 40.99L27.85 40.49L23.09 49.17H20.92L26.16 39.62L24.76 38.53L23.57 37.19L22.63 35.63L21.98 33.86L21.74 30.19L22.84 26.78L25.08 23.98L28.28 22.14L32.4 21.64L32.41 21.65Z" fill="white"/>
</g>
<defs>
<clipPath id="clip0_1121_536">
<rect width="240.84" height="63.66" fill="white"/>
</clipPath>
</defs>
</svg>
