<svg width="15" height="17" viewBox="0 0 15 17" fill="none" xmlns="http://www.w3.org/2000/svg">
<path d="M13.75 11.8788V13.9849C13.7507 14.1805 13.7151 14.374 13.6453 14.5532C13.5756 14.7323 13.4733 14.8931 13.3451 15.0253C13.2168 15.1575 13.0654 15.2581 12.9005 15.3208C12.7356 15.3834 12.5609 15.4067 12.3875 15.3891C10.4643 15.1543 8.61689 14.4161 6.99377 13.2337C5.48366 12.1559 4.20335 10.7177 3.24377 9.02142C2.18751 7.1899 1.53017 5.10465 1.32502 2.9346C1.3094 2.74046 1.32994 2.54479 1.38533 2.36006C1.44072 2.17532 1.52975 2.00556 1.64675 1.86159C1.76374 1.71763 1.90615 1.6026 2.06489 1.52384C2.22363 1.44507 2.39523 1.4043 2.56877 1.40412H4.44377C4.74709 1.40077 5.04114 1.52142 5.27112 1.74359C5.5011 1.96576 5.65132 2.27428 5.69377 2.61166C5.77291 3.28567 5.91968 3.94747 6.13127 4.58443C6.21536 4.83571 6.23356 5.1088 6.18371 5.37135C6.13386 5.63389 6.01806 5.87488 5.85002 6.06577L5.05627 6.95738C5.94599 8.715 7.24155 10.1703 8.80627 11.1697L9.60002 10.2781C9.76995 10.0893 9.98449 9.95926 10.2182 9.90326C10.4519 9.84727 10.6951 9.86771 10.9188 9.96217C11.4858 10.1999 12.075 10.3647 12.675 10.4536C12.9786 10.5017 13.2559 10.6735 13.4541 10.9363C13.6523 11.199 13.7576 11.5345 13.75 11.8788Z" fill="white" stroke="white" stroke-linecap="round" stroke-linejoin="round"/>
</svg>
